<svg width="121" height="35" viewBox="0 0 121 35" fill="none" xmlns="http://www.w3.org/2000/svg">
<path d="M45.564 30C45.3 30 45.084 29.916 44.916 29.748C44.748 29.58 44.664 29.364 44.664 29.1V5.7C44.664 5.436 44.748 5.22 44.916 5.052C45.084 4.884 45.3 4.8 45.564 4.8H48.84C49.2 4.8 49.464 4.884 49.632 5.052C49.8 5.22 49.908 5.352 49.956 5.448L59.568 20.46V5.7C59.568 5.436 59.652 5.22 59.82 5.052C59.988 4.884 60.192 4.8 60.432 4.8H64.104C64.368 4.8 64.584 4.884 64.752 5.052C64.92 5.22 65.004 5.436 65.004 5.7V29.1C65.004 29.34 64.92 29.556 64.752 29.748C64.584 29.916 64.368 30 64.104 30H60.792C60.432 30 60.168 29.916 60 29.748C59.856 29.556 59.748 29.424 59.676 29.352L50.1 14.808V29.1C50.1 29.364 50.016 29.58 49.848 29.748C49.68 29.916 49.464 30 49.2 30H45.564ZM76.8441 30.36C74.0841 30.36 71.8881 29.592 70.2561 28.056C68.6481 26.52 67.7961 24.288 67.7001 21.36C67.7001 21.168 67.7001 20.916 67.7001 20.604C67.7001 20.268 67.7001 20.004 67.7001 19.812C67.7961 17.964 68.2161 16.38 68.9601 15.06C69.7041 13.716 70.7481 12.696 72.0921 12C73.4361 11.28 75.0081 10.92 76.8081 10.92C78.8241 10.92 80.5041 11.34 81.8481 12.18C83.2161 12.996 84.2361 14.124 84.9081 15.564C85.6041 16.98 85.9521 18.612 85.9521 20.46V21.288C85.9521 21.528 85.8561 21.732 85.6641 21.9C85.4961 22.068 85.2921 22.152 85.0521 22.152H73.2801C73.2801 22.176 73.2801 22.224 73.2801 22.296C73.2801 22.344 73.2801 22.392 73.2801 22.44C73.3041 23.208 73.4481 23.916 73.7121 24.564C74.0001 25.188 74.3961 25.692 74.9001 26.076C75.4281 26.46 76.0521 26.652 76.7721 26.652C77.3721 26.652 77.8641 26.568 78.2481 26.4C78.6321 26.232 78.9441 26.028 79.1841 25.788C79.4481 25.548 79.6401 25.344 79.7601 25.176C79.9761 24.936 80.1441 24.792 80.2641 24.744C80.4081 24.672 80.6241 24.636 80.9121 24.636H84.6561C84.8961 24.636 85.0881 24.708 85.2321 24.852C85.4001 24.972 85.4721 25.152 85.4481 25.392C85.4241 25.776 85.2201 26.256 84.8361 26.832C84.4761 27.384 83.9361 27.936 83.2161 28.488C82.4961 29.016 81.5961 29.46 80.5161 29.82C79.4601 30.18 78.2361 30.36 76.8441 30.36ZM73.2801 18.876H80.3361V18.804C80.3361 17.94 80.1921 17.196 79.9041 16.572C79.6401 15.924 79.2441 15.42 78.7161 15.06C78.1881 14.7 77.5521 14.52 76.8081 14.52C76.0641 14.52 75.4281 14.7 74.9001 15.06C74.3721 15.42 73.9641 15.924 73.6761 16.572C73.4121 17.196 73.2801 17.94 73.2801 18.804V18.876ZM86.7562 30C86.5402 30 86.3482 29.928 86.1802 29.784C86.0362 29.616 85.9642 29.424 85.9642 29.208C85.9642 29.136 85.9762 29.052 86.0002 28.956C86.0482 28.836 86.1082 28.728 86.1802 28.632L92.2642 20.388L86.6842 12.648C86.6122 12.552 86.5522 12.456 86.5042 12.36C86.4802 12.264 86.4682 12.168 86.4682 12.072C86.4682 11.856 86.5402 11.676 86.6842 11.532C86.8522 11.364 87.0442 11.28 87.2602 11.28H91.0042C91.2922 11.28 91.5082 11.352 91.6522 11.496C91.8202 11.64 91.9402 11.772 92.0122 11.892L95.7202 16.932L99.4282 11.928C99.5242 11.808 99.6442 11.676 99.7882 11.532C99.9322 11.364 100.16 11.28 100.472 11.28H104.036C104.252 11.28 104.432 11.364 104.576 11.532C104.744 11.676 104.828 11.856 104.828 12.072C104.828 12.168 104.816 12.264 104.792 12.36C104.768 12.456 104.708 12.552 104.612 12.648L98.9242 20.424L105.08 28.632C105.152 28.728 105.2 28.824 105.224 28.92C105.272 29.016 105.296 29.112 105.296 29.208C105.296 29.424 105.212 29.616 105.044 29.784C104.9 29.928 104.72 30 104.504 30H100.58C100.316 30 100.112 29.94 99.9682 29.82C99.8242 29.676 99.7042 29.544 99.6082 29.424L95.6122 24.096L91.5442 29.424C91.4722 29.52 91.3642 29.64 91.2202 29.784C91.0762 29.928 90.8602 30 90.5722 30H86.7562ZM115.815 30C114.327 30 113.055 29.76 111.999 29.28C110.943 28.776 110.139 28.008 109.587 26.976C109.059 25.944 108.795 24.648 108.795 23.088V15.528H105.987C105.723 15.528 105.507 15.444 105.339 15.276C105.171 15.108 105.087 14.892 105.087 14.628V12.18C105.087 11.916 105.171 11.7 105.339 11.532C105.507 11.364 105.723 11.28 105.987 11.28H108.795V5.34C108.795 5.076 108.879 4.86 109.047 4.692C109.239 4.524 109.455 4.44 109.695 4.44H113.223C113.487 4.44 113.703 4.524 113.871 4.692C114.039 4.86 114.123 5.076 114.123 5.34V11.28H118.623C118.863 11.28 119.067 11.364 119.235 11.532C119.403 11.7 119.487 11.916 119.487 12.18V14.628C119.487 14.892 119.403 15.108 119.235 15.276C119.067 15.444 118.863 15.528 118.623 15.528H114.123V22.656C114.123 23.568 114.279 24.288 114.591 24.816C114.927 25.32 115.503 25.572 116.319 25.572H118.947C119.187 25.572 119.391 25.656 119.559 25.824C119.727 25.992 119.811 26.196 119.811 26.436V29.1C119.811 29.364 119.727 29.58 119.559 29.748C119.391 29.916 119.187 30 118.947 30H115.815Z" fill="white"/>
<g clip-path="url(#clip0_55_727)">
<path d="M17.5 35C27.165 35 35 27.165 35 17.5C35 7.83502 27.165 0 17.5 0C7.83502 0 0 7.83502 0 17.5C0 27.165 7.83502 35 17.5 35Z" fill="#5C30FD"/>
<path d="M23.7829 18.8544C21.5603 21.0875 19.3314 23.3146 17.096 25.5358C14.1784 28.2935 10.0242 24.2486 12.7101 21.2894C13.9815 20.0138 15.2093 18.7225 16.5382 17.5002C15.2592 16.2226 14.0615 15.057 12.8153 13.7835C10.9231 12.0287 12.1461 8.65655 14.7328 8.55743C15.6577 8.47677 16.4616 8.7878 17.1199 9.4461C19.3402 11.6609 21.5578 13.8785 23.7727 16.0988C24.5855 16.9157 24.5937 18.0396 23.7829 18.8544Z" fill="white"/>
</g>
<defs>
<clipPath id="clip0_55_727">
<rect width="35" height="35" fill="white"/>
</clipPath>
</defs>
</svg>
