<svg width="35" height="35" viewBox="0 0 35 35" fill="none" xmlns="http://www.w3.org/2000/svg">
<g clip-path="url(#clip0_48_1466)">
<path d="M17.5 35C27.165 35 35 27.165 35 17.5C35 7.83502 27.165 0 17.5 0C7.83502 0 0 7.83502 0 17.5C0 27.165 7.83502 35 17.5 35Z" fill="#5C30FD"/>
<path d="M23.7829 18.8542C21.5603 21.0873 19.3313 23.3144 17.096 25.5356C14.1784 28.2933 10.0242 24.2484 12.7101 21.2892C13.9815 20.0136 15.2093 18.7223 16.5382 17.5C15.2592 16.2224 14.0615 15.0568 12.8153 13.7833C10.9231 12.0285 12.1461 8.65635 14.7328 8.55723C15.6577 8.47657 16.4616 8.7876 17.1199 9.4459C19.3402 11.6607 21.5578 13.8783 23.7727 16.0986C24.5854 16.9155 24.5936 18.0394 23.7829 18.8542Z" fill="white"/>
</g>
<defs>
<clipPath id="clip0_48_1466">
<rect width="35" height="35" fill="white"/>
</clipPath>
</defs>
</svg>
