<svg width="65" height="65" viewBox="0 0 65 65" fill="none" xmlns="http://www.w3.org/2000/svg">
<path d="M58.8585 42.1505C60.1301 41.0323 60.9375 39.4002 60.9375 37.5781C60.9375 34.2174 58.2045 31.4844 54.8438 31.4844C51.483 31.4844 48.75 34.2174 48.75 37.5781C48.75 39.8562 50.0084 41.8438 51.8649 42.8888C49.8509 44.1807 48.4402 46.3602 48.232 48.88L47.8227 53.8281H42.6562C40.9764 53.8281 39.6094 55.1952 39.6094 56.875C39.6094 58.5548 40.9764 59.9219 42.6562 59.9219H46.7188V63.9844H63.9844V49.531C63.9844 46.1541 61.8485 43.2737 58.8585 42.1505ZM54.8438 33.5156C57.0842 33.5156 58.9062 35.3377 58.9062 37.5781C58.9062 39.8186 57.0842 41.6406 54.8438 41.6406C52.6033 41.6406 50.7812 39.8186 50.7812 37.5781C50.7812 35.3377 52.6033 33.5156 54.8438 33.5156ZM61.9531 61.9531H48.75V59.9219H49.1024C51.7471 59.9219 53.9205 57.9363 54.1592 55.3038L54.8387 47.8268L52.8155 47.643L52.1361 55.12C51.9929 56.6993 50.6888 57.8906 49.1024 57.8906H42.6562C42.0966 57.8906 41.6406 57.4346 41.6406 56.875C41.6406 56.3154 42.0966 55.8594 42.6562 55.8594H47.8227C48.88 55.8594 49.7494 55.0652 49.8459 54.0038L50.2562 49.0476C50.506 46.0332 53.0695 43.6719 56.094 43.6719C59.3247 43.6719 61.9531 46.3003 61.9531 49.531V61.9531Z" fill="#5C30FD"/>
<path d="M22.3438 53.8281L17.1783 53.8363L16.768 48.88C16.5588 46.3602 15.148 44.1807 13.1351 42.8888C14.9916 41.8438 16.25 39.8562 16.25 37.5781C16.25 34.2174 13.517 31.4844 10.1562 31.4844C6.79555 31.4844 4.0625 34.2174 4.0625 37.5781C4.0625 39.4002 4.86992 41.0323 6.14148 42.1505C3.15148 43.2737 1.01562 46.1541 1.01562 49.531V63.9844H18.2812V59.9219H22.3438C24.0236 59.9219 25.3906 58.5548 25.3906 56.875C25.3906 55.1952 24.0236 53.8281 22.3438 53.8281ZM10.1562 33.5156C12.3967 33.5156 14.2188 35.3377 14.2188 37.5781C14.2188 39.8186 12.3967 41.6406 10.1562 41.6406C7.91578 41.6406 6.09375 39.8186 6.09375 37.5781C6.09375 35.3377 7.91578 33.5156 10.1562 33.5156ZM22.3438 57.8906H15.8976C14.3112 57.8906 13.0071 56.6993 12.8639 55.12L12.1845 47.643L10.1613 47.8268L10.8408 55.3038C11.0795 57.9363 13.2529 59.9219 15.8976 59.9219H16.25V61.9531H3.04688V49.531C3.04688 46.3003 5.67531 43.6719 8.90602 43.6719C11.9305 43.6719 14.495 46.0332 14.7448 49.0476L15.1552 54.012C15.2506 55.0652 16.12 55.8594 17.1773 55.8594H22.3438C22.9034 55.8594 23.3594 56.3154 23.3594 56.875C23.3594 57.4346 22.9034 57.8906 22.3438 57.8906Z" fill="#5C30FD"/>
<path d="M41.731 37.7467C41.8366 37.5162 41.9341 37.2846 42.0215 37.051L44.6875 36.3218V30.7095L42.0215 29.9802C41.9341 29.7477 41.8377 29.5151 41.731 29.2845L43.1021 26.8816L41.4903 25.2698C41.5797 24.9854 41.6406 24.6888 41.6406 24.375C41.6406 23.2233 40.9906 22.23 40.0451 21.713L42.5242 16.7548C43.0788 15.6437 43.4373 14.4351 43.5886 13.2031H45.1283L48.75 19.24L52.1005 13.6541C52.2681 13.3758 52.5738 13.2031 52.8978 13.2031C53.4107 13.2031 53.8281 13.6205 53.8281 14.1334V21.3281H55.8594V14.1334C55.8594 12.5003 54.5309 11.1719 52.8978 11.1719C51.8629 11.1719 50.8909 11.7223 50.3587 12.61L48.75 15.2913L46.278 11.1719H43.6353C43.2626 5.51078 38.5501 1.01562 32.7966 1.01562H32.2034C26.4499 1.01562 21.7374 5.51078 21.3647 11.1719H18.722L16.25 15.2913L14.6413 12.61C14.1091 11.7223 13.1361 11.1719 12.1022 11.1719C10.4691 11.1719 9.14062 12.5003 9.14062 14.1334V21.3281H11.1719V14.1334C11.1719 13.6205 11.5893 13.2031 12.1022 13.2031C12.4272 13.2031 12.7329 13.3758 12.8995 13.6551L16.25 19.24L19.8717 13.2031H21.4114C21.5627 14.4361 21.9212 15.6447 22.4758 16.7548L24.9549 21.713C24.0094 22.23 23.3594 23.2233 23.3594 24.375C23.3594 24.6888 23.4203 24.9854 23.5097 25.2708L21.8979 26.8826L23.269 29.2855C23.1634 29.5161 23.0659 29.7477 22.9785 29.9813L20.3125 30.7095V36.3218L22.9785 37.05C23.0659 37.2836 23.1634 37.5152 23.269 37.7457L21.8979 40.1487L25.867 44.1177L28.2699 42.7466C28.5005 42.8523 28.732 42.9498 28.9656 43.0371L29.6938 45.7031H35.3062L36.0344 43.0371C36.268 42.9498 36.4995 42.8523 36.7301 42.7466L39.133 44.1177L43.1021 40.1487L41.731 37.7467ZM36.5625 33.5156C36.5625 35.7561 34.7405 37.5781 32.5 37.5781C30.2595 37.5781 28.4375 35.7561 28.4375 33.5156C28.4375 33.1165 28.4964 32.7245 28.6081 32.3487C29.7273 33.084 31.0639 33.5156 32.5 33.5156C33.9361 33.5156 35.2727 33.084 36.3909 32.3487C36.5036 32.7245 36.5625 33.1165 36.5625 33.5156ZM26.4062 23.3594H38.5938C39.1534 23.3594 39.6094 23.8154 39.6094 24.375C39.6094 24.9346 39.1534 25.3906 38.5938 25.3906H26.4062C25.8466 25.3906 25.3906 24.9346 25.3906 24.375C25.3906 23.8154 25.8466 23.3594 26.4062 23.3594ZM32.5 31.4844C30.0483 31.4844 27.9967 29.7365 27.5245 27.4219H37.4755C37.0033 29.7365 34.9517 31.4844 32.5 31.4844ZM23.3594 11.8909C23.3594 7.01391 27.3264 3.04688 32.2034 3.04688H32.7966C37.6736 3.04688 41.6406 7.01391 41.6406 11.8909C41.6406 13.257 41.3177 14.624 40.7073 15.8468L37.9661 21.3281H33.5156V16.1058C35.2625 15.6518 36.5625 14.0745 36.5625 12.1875C36.5625 9.94703 34.7405 8.125 32.5 8.125C30.2595 8.125 28.4375 9.94703 28.4375 12.1875C28.4375 14.0745 29.7375 15.6518 31.4844 16.1058V21.3281H27.0339L24.2927 15.8468C23.6823 14.624 23.3594 13.257 23.3594 11.8909ZM32.5 14.2188C31.3798 14.2188 30.4688 13.3077 30.4688 12.1875C30.4688 11.0673 31.3798 10.1562 32.5 10.1562C33.6202 10.1562 34.5312 11.0673 34.5312 12.1875C34.5312 13.3077 33.6202 14.2188 32.5 14.2188ZM38.7928 41.5858L36.7829 40.4391L36.2893 40.6991C35.8333 40.9398 35.3651 41.1359 34.8969 41.2801L34.3637 41.4446L33.7563 43.6719H31.2437L30.6343 41.4446L30.1011 41.2801C29.6339 41.1359 29.1647 40.9409 28.7077 40.6991L28.2151 40.4391L26.2062 41.5848L24.4288 39.8084L25.5755 37.7985L25.3155 37.3049C25.0748 36.8489 24.8787 36.3807 24.7345 35.9125L24.57 35.3793L22.3438 34.772V32.2593L24.571 31.6499L24.7355 31.1167C24.8798 30.6495 25.0748 30.1803 25.3165 29.7233L25.5765 29.2307L24.4309 27.2218L24.7355 26.9171C24.9529 27.0603 25.1946 27.167 25.4465 27.2513C25.61 28.6264 26.1645 29.8827 26.9994 30.9024C26.6124 31.7159 26.4062 32.6046 26.4062 33.5156C26.4062 36.8763 29.1393 39.6094 32.5 39.6094C35.8607 39.6094 38.5938 36.8763 38.5938 33.5156C38.5938 32.6036 38.3876 31.7159 38.0006 30.9034C38.8365 29.8837 39.39 28.6264 39.5545 27.2523C39.8064 27.168 40.0471 27.0613 40.2655 26.9181L40.5702 27.2228L39.4245 29.2317L39.6845 29.7243C39.9252 30.1813 40.1213 30.6495 40.2655 31.1177L40.43 31.6509L42.6573 32.2603V34.773L40.43 35.3813L40.2655 35.9145C40.1213 36.3817 39.9263 36.8499 39.6845 37.307L39.4245 37.8005L40.5712 39.8105L38.7928 41.5858Z" fill="#5C30FD"/>
<path d="M53.8281 27.4219H55.8594V29.4531H53.8281V27.4219Z" fill="#5C30FD"/>
<path d="M53.8281 23.3594H55.8594V25.3906H53.8281V23.3594Z" fill="#5C30FD"/>
<path d="M9.14062 27.4219H11.1719V29.4531H9.14062V27.4219Z" fill="#5C30FD"/>
<path d="M9.14062 23.3594H11.1719V25.3906H9.14062V23.3594Z" fill="#5C30FD"/>
</svg>
