<svg width="65" height="65" viewBox="0 0 65 65" fill="none" xmlns="http://www.w3.org/2000/svg">
<path d="M53.7896 39.0952L42.3443 45.7617C41.7704 46.0958 41.187 46.3318 40.578 46.4726C40.8036 46.1106 40.9804 45.7013 41.1018 45.2481C41.6868 43.0644 40.3889 40.7845 38.1469 40.0576C38.1034 40.0436 38.0591 40.0324 38.014 40.0243C34.7245 39.431 31.4778 38.2572 28.8691 37.3141C27.9628 36.9864 27.1068 36.6769 26.379 36.441C23.4491 35.4904 20.7999 36.6672 18.5951 37.9436L10.0799 42.8737L9.27704 41.4551C8.92271 40.8289 8.34393 40.3778 7.64747 40.1847C6.95126 39.9916 6.22267 40.0805 5.59641 40.435L2.38513 42.2525C1.75875 42.607 1.30755 43.1856 1.11446 43.8821C0.921363 44.5786 1.01036 45.307 1.36481 45.9332L10.8059 62.6151C11.1603 63.2412 11.739 63.6924 12.4355 63.8855C12.6763 63.9523 12.921 63.9853 13.164 63.9853C13.6235 63.9853 14.0769 63.8671 14.4866 63.6353L17.698 61.8178C18.3242 61.4633 18.7753 60.8847 18.9684 60.1882C19.1615 59.4918 19.0725 58.7633 18.718 58.1372L17.7447 56.4172L19.6858 55.2965L34.3451 59.2244C35.1729 59.4464 35.9857 59.5571 36.7809 59.5571C38.3663 59.5571 39.8819 59.1167 41.3082 58.2386L62.079 45.4488C63.9724 44.2832 64.5731 41.3451 63.3391 39.2849C62.74 38.2847 60.2813 35.3147 53.7896 39.0952ZM17.011 59.6456C16.9628 59.8192 16.8516 59.9629 16.6974 60.05L13.486 61.8674C13.1706 62.0463 12.7526 61.9307 12.5735 61.6145L3.13251 44.9328C3.04529 44.7788 3.02396 44.5984 3.07195 44.4247C3.12006 44.2512 3.2314 44.1075 3.38552 44.0204L6.5968 42.2029C6.6971 42.1461 6.80856 42.1173 6.92206 42.1173C6.98287 42.1173 7.04431 42.1256 7.10487 42.1425C7.27841 42.1906 7.42212 42.3019 7.50934 42.4559L16.9505 59.1378C17.0376 59.2917 17.0591 59.4721 17.011 59.6456ZM61.014 43.7192L40.2432 56.509C38.5961 57.5231 36.7885 57.7766 34.8709 57.2625L19.8053 53.2256C19.5454 53.1562 19.268 53.1925 19.0347 53.327L16.7443 54.6494L11.0804 44.6417L19.6129 39.7015C21.5215 38.5963 23.5867 37.6705 25.7523 38.3731C26.448 38.5987 27.2499 38.8887 28.1783 39.2243C30.84 40.1866 34.1479 41.3825 37.5801 42.0099C38.7761 42.4279 39.4449 43.5833 39.1397 44.7224C38.738 46.2212 37.4888 46.4073 36.496 46.2933C34.8101 45.9466 33.208 45.4895 31.5129 45.0054C30.7091 44.7757 29.8778 44.5385 29.0236 44.3096C28.4823 44.1647 27.9249 44.486 27.7797 45.0277C27.6345 45.5694 27.9562 46.1264 28.4979 46.2716C29.3361 46.4962 30.1592 46.7313 30.955 46.9586C32.702 47.4575 34.3522 47.9287 36.1291 48.292C36.1359 48.2934 36.1426 48.2939 36.1495 48.295C36.1563 48.2961 36.1627 48.2982 36.1695 48.2993L37.5928 48.5308C39.721 48.8714 41.6101 48.5398 43.3665 47.5168L54.812 40.8503C58.1064 38.9314 60.6429 38.7363 61.5965 40.3284C62.2536 41.4258 61.9597 43.137 61.014 43.7192ZM7.52851 45.4247C7.62017 46.0512 7.1865 46.6334 6.55986 46.7251C5.93335 46.8166 5.35114 46.383 5.25948 45.7564C5.16795 45.1299 5.60149 44.5477 6.22813 44.4561C6.85477 44.3644 7.43698 44.7981 7.52851 45.4247ZM63.9844 7.86767V5.9343C63.9844 3.92222 62.3474 2.28516 60.3354 2.28516H43.7834C41.7713 2.28516 40.1344 3.92222 40.1344 5.9343V7.86767C40.1344 8.90195 40.5677 9.83646 41.2614 10.5012C40.5677 11.1658 40.1344 12.1003 40.1344 13.1346V15.0679C40.1344 15.2127 40.1435 15.3571 40.1608 15.5006C34.8464 16.7014 30.8655 21.4608 30.8655 27.1329C30.8655 33.7085 36.2152 39.058 42.7908 39.058C47.1866 39.058 51.0341 36.6669 53.102 33.1174H60.3354C62.3475 33.1174 63.9844 31.4804 63.9844 29.4684V27.5349C63.9844 26.5006 63.5511 25.5661 62.8575 24.9015C63.5511 24.2369 63.9844 23.3024 63.9844 22.2681V20.3347C63.9844 19.3004 63.5511 18.3661 62.8575 17.7013C63.5511 17.0367 63.9844 16.1022 63.9844 15.0679V13.1346C63.9844 12.1003 63.5511 11.1659 62.8575 10.5012C63.5511 9.83646 63.9844 8.90195 63.9844 7.86767ZM42.7908 37.0266C37.3352 37.0266 32.8968 32.5884 32.8968 27.1328C32.8968 21.6772 37.3352 17.239 42.7908 17.239C48.2463 17.239 52.6846 21.6772 52.6846 27.1328C52.6846 32.5884 48.2462 37.0266 42.7908 37.0266ZM61.9532 27.5349V29.4682C61.9532 30.3602 61.2274 31.086 60.3354 31.086H54.0413C54.4776 29.8482 54.7157 28.518 54.7157 27.1328C54.7157 26.7225 54.6949 26.3169 54.6541 25.917H60.3353C61.2274 25.917 61.9532 26.6428 61.9532 27.5349ZM61.9532 20.3346V22.268C61.9532 23.1599 61.2274 23.8857 60.3354 23.8857H54.2663C53.7056 21.9065 52.6454 20.1351 51.2312 18.7168H60.3354C61.2274 18.717 61.9532 19.4426 61.9532 20.3346ZM61.9532 13.1344V15.0678C61.9532 15.9599 61.2274 16.6856 60.3354 16.6856H48.5355C46.8305 15.7442 44.8723 15.2076 42.7908 15.2076C42.5843 15.2076 42.3789 15.2129 42.175 15.2233C42.1701 15.1719 42.1656 15.1202 42.1656 15.0678V13.1344C42.1656 12.2425 42.8914 11.5167 43.7834 11.5167H60.3354C61.2274 11.5167 61.9532 12.2425 61.9532 13.1344ZM43.7834 9.48543C42.8914 9.48543 42.1656 8.75964 42.1656 7.86754V5.9343C42.1656 5.0422 42.8914 4.31641 43.7834 4.31641H60.3354C61.2274 4.31641 61.9532 5.0422 61.9532 5.9343V7.86767C61.9532 8.75977 61.2274 9.48556 60.3354 9.48556L43.7834 9.48543ZM47.2796 29.5641C47.3927 30.4958 47.1414 31.3476 46.5531 32.0277C45.9323 32.7454 44.941 33.2439 43.8063 33.4298V34.0363C43.8063 34.5971 43.3515 35.0519 42.7906 35.0519C42.2298 35.0519 41.775 34.5971 41.775 34.0363V33.4136C40.0412 33.083 38.7079 31.9279 38.3054 30.313C38.1698 29.7687 38.501 29.2176 39.0453 29.0819C39.5899 28.9465 40.1406 29.2775 40.2763 29.8218C40.5908 31.0831 41.8912 31.4997 42.9087 31.4779C43.7984 31.4567 44.6257 31.1509 45.0166 30.6989C45.2286 30.4538 45.3068 30.171 45.2629 29.8088C45.1889 29.2 44.8234 28.4548 42.6359 28.0957C39.4474 27.5721 38.703 25.9144 38.64 24.616C38.5527 22.8196 39.7981 21.3168 41.7387 20.8766C41.7508 20.8739 41.7627 20.8712 41.7748 20.8686V20.2292C41.7748 19.6683 42.2295 19.2136 42.7904 19.2136C43.3513 19.2136 43.806 19.6683 43.806 20.2292V20.8595C45.0821 21.1231 46.3055 21.9174 46.9386 23.4254C47.1558 23.9426 46.9125 24.5379 46.3955 24.755C45.8785 24.9721 45.2831 24.7291 45.0658 24.2117C44.5341 22.9458 43.2376 22.6196 42.188 22.8574C41.4231 23.0309 40.6223 23.5582 40.6687 24.5173C40.6847 24.8473 40.7274 25.7238 42.9648 26.0912C45.6006 26.5239 47.0522 27.6923 47.2796 29.5641ZM21.3839 10.6642H23.34V23.2251C23.34 23.7859 23.7948 24.2407 24.3556 24.2407H28.468C29.0289 24.2407 29.4837 23.7859 29.4837 23.2251V10.6642H31.4398C31.8134 10.6642 32.1569 10.4589 32.3341 10.1298C32.5112 9.80078 32.4932 9.40101 32.2874 9.08908L27.2596 1.47177C27.0715 1.18701 26.753 1.01562 26.4119 1.01562C26.0708 1.01562 25.7523 1.18701 25.5642 1.47177L20.5364 9.08908C20.3306 9.40101 20.3126 9.80078 20.4897 10.1298C20.6668 10.459 21.0103 10.6642 21.3839 10.6642ZM26.4119 3.87486L29.5525 8.63294H28.468C27.9072 8.63294 27.4524 9.08769 27.4524 9.64856V22.2094H25.3713V9.64856C25.3713 9.08769 24.9165 8.63294 24.3556 8.63294H23.2712L26.4119 3.87486Z" fill="#5C30FD"/>
</svg>
