<svg width="65" height="65" viewBox="0 0 65 65" fill="none" xmlns="http://www.w3.org/2000/svg">
<path d="M63.8772 14.7177L57.5463 2.04931C57.3744 1.70514 57.0225 1.48767 56.6379 1.48767C56.2532 1.48767 55.9014 1.70514 55.7294 2.04931L49.3983 14.7177C49.2411 15.0326 49.2579 15.4063 49.443 15.7058C49.6281 16.0051 49.9549 16.1873 50.307 16.1873H52.1691V25.0876C52.1691 25.6485 52.6238 26.1033 53.1847 26.1033H60.0912C60.6521 26.1033 61.1069 25.6485 61.1069 25.0876V16.1873H62.9688C63.3207 16.1873 63.6476 16.005 63.8327 15.7058C64.0178 15.4066 64.0345 15.0326 63.8772 14.7177ZM60.0911 14.1562C59.5302 14.1562 59.0755 14.6109 59.0755 15.1718V24.0721H54.2001V15.1718C54.2001 14.6109 53.7453 14.1562 53.1845 14.1562H51.9496L56.6377 4.77538L61.3257 14.1562H60.0911ZM47.3154 34.1815H40.4445C39.8836 34.1815 39.4288 34.6363 39.4288 35.1972V62.4965C39.4288 63.0574 39.8836 63.5122 40.4445 63.5122H47.3154C47.8763 63.5122 48.3311 63.0574 48.3311 62.4965V35.1972C48.3311 34.6363 47.8763 34.1815 47.3154 34.1815ZM46.2998 61.4809H41.4601V36.2128H46.2998V61.4809ZM60.0732 27.6942H53.2024C52.6415 27.6942 52.1867 28.149 52.1867 28.7099V62.4965C52.1867 63.0574 52.6415 63.5122 53.2024 63.5122H60.0732C60.6341 63.5122 61.0888 63.0574 61.0888 62.4965V28.7099C61.0888 28.149 60.6341 27.6942 60.0732 27.6942ZM59.0576 61.4809H54.218V29.7255H59.0576V61.4809ZM8.90208 55.0601H2.03125C1.47037 55.0601 1.01562 55.5149 1.01562 56.0757V62.4965C1.01562 63.0574 1.47037 63.5122 2.03125 63.5122H8.90195C9.46283 63.5122 9.91758 63.0574 9.91758 62.4965V56.0757C9.91771 55.5149 9.46296 55.0601 8.90208 55.0601ZM7.88646 61.4809H3.04688V57.0914H7.88633L7.88646 61.4809ZM47.5814 16.287C47.8442 16.0241 47.9426 15.6385 47.8375 15.2818C47.7323 14.925 47.4407 14.6544 47.0773 14.576L42.2713 13.5403L44.5453 11.2664C44.9419 10.8698 44.9419 10.2267 44.5453 9.83014C44.1485 9.43341 43.5056 9.43354 43.109 9.83014L40.8351 12.104L39.7993 7.29806C39.721 6.9346 39.4502 6.64298 39.0934 6.53787C38.7372 6.43288 38.3513 6.53101 38.0882 6.79393L30.6041 14.2782C30.3602 14.5221 30.2569 14.8731 30.3295 15.2103L31.6414 21.2977L30.7223 22.2168C27.6802 19.5113 23.6764 17.865 19.2947 17.865C9.80192 17.865 2.07898 25.5879 2.07898 35.0807C2.07898 42.6946 7.04768 49.1689 13.9127 51.4338V62.4964C13.9127 63.0573 14.3674 63.512 14.9283 63.512H21.7991C22.36 63.512 22.8147 63.0573 22.8147 62.4964V51.934C24.1644 51.6524 25.4564 51.2123 26.6707 50.634V62.4965C26.6707 63.0574 27.1254 63.5122 27.6863 63.5122H34.5573C35.1182 63.5122 35.5729 63.0574 35.5729 62.4965V42.4087C35.5729 42.0981 35.433 41.8204 35.2132 41.6341C36.0483 39.613 36.5104 37.3999 36.5104 35.0807C36.5104 30.699 34.8641 26.6952 32.1586 23.6531L33.0776 22.734L39.1652 24.046C39.2364 24.0613 39.308 24.0688 39.3792 24.0688C39.6457 24.0688 39.9049 23.9638 40.0974 23.7714L47.5814 16.287ZM32.4314 15.3232L38.2062 9.54831L39.1254 13.8133L33.3507 19.5881L32.4314 15.3232ZM20.7834 61.4809H15.9438V51.968C17.0281 52.1829 18.1483 52.2965 19.2947 52.2965C19.7963 52.2965 20.2926 52.2736 20.7835 52.2313V61.4809H20.7834ZM33.5416 61.481H28.7019V49.4917C30.6116 48.2408 32.259 46.6217 33.5416 44.735V61.481ZM34.4791 35.0807C34.4791 43.4536 27.6674 50.2652 19.2947 50.2652C10.9219 50.2652 4.11023 43.4536 4.11023 35.0807C4.11023 26.7079 10.9219 19.8963 19.2947 19.8963C23.1164 19.8963 26.6123 21.316 29.2842 23.6548L26.6004 26.3387C24.6207 24.6816 22.0723 23.6824 19.2947 23.6824C13.0096 23.6824 7.89636 28.7957 7.89636 35.0807C7.89636 41.3658 13.0096 46.4791 19.2947 46.4791C25.5798 46.4791 30.6929 41.3658 30.6929 35.0807C30.6929 32.3031 29.6938 29.7548 28.0366 27.7751L30.7204 25.0912C33.0595 27.7632 34.4791 31.2591 34.4791 35.0807ZM22.4751 35.0807C22.4751 36.8345 21.0484 38.2613 19.2947 38.2613C17.541 38.2613 16.1142 36.8345 16.1142 35.0807C16.1142 33.327 17.5409 31.9002 19.2947 31.9002C19.8018 31.9002 20.2811 32.02 20.7069 32.232L18.5765 34.3626C18.1799 34.7592 18.1799 35.4022 18.5765 35.7988C18.7748 35.9971 19.0347 36.0962 19.2947 36.0962C19.5547 36.0962 19.8146 35.9971 20.0129 35.7988L22.1433 33.6684C22.3552 34.0943 22.4751 34.5737 22.4751 35.0807ZM22.1896 30.7495C21.361 30.1938 20.3652 29.8691 19.2947 29.8691C16.4209 29.8691 14.0829 32.207 14.0829 35.0809C14.0829 37.9547 16.4209 40.2927 19.2947 40.2927C22.1684 40.2927 24.5064 37.9547 24.5064 35.0809C24.5064 34.0104 24.1817 33.0146 23.626 32.186L26.5931 29.2188C27.8858 30.8249 28.6617 32.8635 28.6617 35.0809C28.6617 40.246 24.4597 44.448 19.2947 44.448C14.1298 44.448 9.92761 40.2458 9.92761 35.0809C9.92761 29.9159 14.1298 25.7138 19.2947 25.7138C21.5121 25.7138 23.5507 26.4898 25.1568 27.7825L22.1896 30.7495ZM39.0522 21.9438L34.7871 21.0246L40.5619 15.2498L44.827 16.1689L39.0522 21.9438Z" fill="#5C30FD"/>
</svg>
