<svg width="65" height="65" viewBox="0 0 65 65" fill="none" xmlns="http://www.w3.org/2000/svg">
<path d="M15.776 11.4712C15.9341 12.0094 15.6262 12.5738 15.088 12.732C12.3178 13.5463 10.2989 15.9241 9.94475 18.7897C9.88127 19.3041 9.44341 19.6809 8.93813 19.6809C8.89649 19.6809 8.8546 19.6784 8.8122 19.673C8.25551 19.6042 7.86005 19.0972 7.92886 18.5405C8.38246 14.8708 10.9677 11.8259 14.5152 10.7831C15.0535 10.6252 15.6178 10.9331 15.776 11.4712ZM22.9747 39.0137H11.2844C10.7235 39.0137 10.2687 39.4684 10.2687 40.0293C10.2687 40.5902 10.7235 41.0449 11.2844 41.0449H22.9747C23.5356 41.0449 23.9903 40.5902 23.9903 40.0293C23.9903 39.4684 23.5357 39.0137 22.9747 39.0137ZM20.6939 43.8542H13.5653C13.0044 43.8542 12.5497 44.3089 12.5497 44.8698C12.5497 45.4307 13.0044 45.8854 13.5653 45.8854H20.6939C21.2547 45.8854 21.7095 45.4307 21.7095 44.8698C21.7095 44.3089 21.2547 43.8542 20.6939 43.8542ZM62.0801 44.9504C62.0801 45.8255 62.0172 46.7053 61.8932 47.5656C61.6676 49.1322 60.3559 50.2681 58.7737 50.2682C58.7707 50.2682 58.7675 50.2682 58.7642 50.2682C57.5936 50.2682 56.5037 50.8966 55.919 51.9092C55.3339 52.9227 55.3352 54.1824 55.9222 55.1968C56.7139 56.5648 56.3885 58.2689 55.1483 59.2487C53.7676 60.3398 52.242 61.2226 50.6141 61.8725C49.1432 62.4596 47.5026 61.8894 46.7129 60.5163C46.1283 59.4996 45.0375 58.8679 43.8664 58.8679C42.6952 58.8679 41.6044 59.4996 41.0198 60.5164C40.439 61.5264 39.3976 62.1021 38.302 62.1021C37.9083 62.1021 37.5077 62.0279 37.1188 61.8726C35.4906 61.2227 33.965 60.3399 32.5843 59.2489C31.3442 58.2692 31.0187 56.565 31.8105 55.1969C32.3977 54.1826 32.3988 52.9228 31.8137 51.9093C31.2292 50.8969 30.1393 50.2685 28.9687 50.2685C28.9655 50.2685 28.9622 50.2685 28.9593 50.2685C27.3768 50.2686 26.0653 49.1326 25.8395 47.566C25.7155 46.7054 25.6527 45.8256 25.6527 44.9508C25.6527 44.0753 25.7155 43.1954 25.8395 42.3355C26.0651 40.7691 27.3767 39.6331 28.959 39.6331H28.9685C30.1393 39.6331 31.2291 39.0047 31.8137 37.9921C32.3988 36.9786 32.3977 35.7189 31.8105 34.7045C31.0188 33.3366 31.3442 31.6325 32.5843 30.6526C33.6491 29.8111 34.8006 29.0951 36.0181 28.5128L35.3058 27.652H28.8902C28.5479 28.1563 28.1725 28.641 27.7639 29.1017C26.8208 30.1652 26.3622 31.3731 26.3622 32.7944C26.3622 34.6748 24.8323 36.2047 22.9519 36.2047H11.3072C9.42678 36.2047 7.89686 34.6748 7.89686 32.7944C7.89686 31.3731 7.43844 30.1652 6.49518 29.1017C4.18958 26.5018 2.91992 23.1552 2.91992 19.6777C2.91992 11.8424 9.29436 5.46798 17.1295 5.46798C23.4514 5.46798 28.8214 9.6182 30.6602 15.3369H35.3057L43.276 5.70602C43.469 5.47293 43.7558 5.33798 44.0584 5.33798H49.5451C49.9799 3.92677 51.2962 2.89819 52.8483 2.89819C54.7536 2.89819 56.3037 4.44829 56.3037 6.3536C56.3037 8.25892 54.7536 9.80901 52.8483 9.80901C51.2963 9.80901 49.98 8.78044 49.5452 7.36923H44.5364L36.5661 17.0001C36.3731 17.2332 36.0863 17.3682 35.7836 17.3682H31.1505C31.2739 18.1201 31.3391 18.8914 31.3391 19.6777C31.3391 19.9457 31.3306 20.2127 31.3157 20.4788H52.7262C53.1694 19.0678 54.4852 18.039 56.0223 18.039C57.9276 18.039 59.4777 19.5891 59.4777 21.4944C59.4777 23.3997 57.9276 24.9498 56.0223 24.9498C54.4703 24.9498 53.154 23.9213 52.7191 22.5102H31.0543C30.836 23.5844 30.4949 24.6281 30.0377 25.6206H35.7836C36.0863 25.6206 36.3732 25.7556 36.5661 25.9887L38.0735 27.8102C39.2509 27.7241 40.3988 28.3046 41.0198 29.3847C41.6044 30.4014 42.6952 31.033 43.8664 31.033C45.0375 31.033 46.1283 30.4014 46.713 29.3847C47.5026 28.0116 49.1433 27.4412 50.6141 28.0284C52.2421 28.6783 53.7678 29.561 55.1486 30.6522C56.3886 31.6321 56.714 33.3362 55.9222 34.7041C55.3351 35.7185 55.3339 36.9782 55.919 37.9917C56.5037 39.0042 57.5936 39.6326 58.7642 39.6326H58.7736C60.3558 39.6326 61.6674 40.7683 61.8931 42.335C62.0171 43.1957 62.0801 44.0754 62.0801 44.9504ZM54.5981 21.4994C54.6009 22.2823 55.2387 22.9184 56.0223 22.9184C56.8076 22.9184 57.4464 22.2796 57.4464 21.4943C57.4464 20.709 56.8076 20.0701 56.0223 20.0701C55.2345 20.0703 54.6093 20.6978 54.5981 21.4994ZM51.4243 6.35348C51.4243 7.13881 52.0631 7.77764 52.8484 7.77764C53.6338 7.77764 54.2726 7.13881 54.2726 6.35348C54.2726 5.56814 53.6338 4.92932 52.8484 4.92932C52.0631 4.92932 51.4243 5.56814 51.4243 6.35348ZM29.3079 19.6777C29.3079 12.9624 23.8447 7.49923 17.1295 7.49923C10.4143 7.49923 4.95117 12.9624 4.95117 19.6777C4.95117 22.6579 6.03916 25.5261 8.01493 27.7537C9.28446 29.1851 9.92812 30.8811 9.92812 32.7941C9.92812 33.5546 10.5468 34.1732 11.3072 34.1732H22.952C23.7124 34.1732 24.3311 33.5546 24.3311 32.7941C24.3311 30.8811 24.9747 29.1851 26.2443 27.7537C28.2199 25.5262 29.3079 22.6581 29.3079 19.6777ZM60.0488 44.9504C60.0488 44.1722 59.993 43.3898 59.8826 42.625C59.8024 42.0679 59.336 41.6641 58.7735 41.6641C58.7703 41.664 58.7672 41.6641 58.7643 41.6641C56.87 41.6641 55.1065 40.6467 54.16 39.0075C53.2128 37.3666 53.2144 35.3279 54.1643 33.6867C54.4459 33.2003 54.3302 32.5943 53.8892 32.2459C52.6622 31.2764 51.307 30.4922 49.861 29.915C49.3379 29.7063 48.7547 29.9091 48.474 30.3973C47.5279 32.0424 45.7625 33.0644 43.8665 33.0644C41.9704 33.0644 40.2049 32.0424 39.259 30.3973C38.9782 29.9089 38.3948 29.7063 37.872 29.915C36.4262 30.4921 35.0709 31.2764 33.8438 32.2461C33.4029 32.5944 33.2872 33.2004 33.5687 33.6869C34.5186 35.328 34.5202 37.3667 33.573 39.0075C32.6266 40.6467 30.8628 41.6641 28.9687 41.6641C28.9656 41.6641 28.9627 41.6641 28.9594 41.6641C28.3967 41.6641 27.9304 42.0679 27.8502 42.625C27.74 43.3894 27.6842 44.1717 27.6842 44.9504C27.6842 45.7286 27.74 46.511 27.8502 47.2759C27.9304 47.833 28.3969 48.2368 28.9595 48.2368C28.9626 48.237 28.9658 48.2368 28.9689 48.2368C30.8629 48.2368 32.6266 49.2542 33.573 50.8933C34.5202 52.5341 34.5187 54.5728 33.5687 56.2141C33.2872 56.7005 33.4029 57.3064 33.8438 57.6547C35.0707 58.6243 36.4259 59.4086 37.8719 59.9858C38.3949 60.1944 38.9782 59.9917 39.259 59.5035C40.2049 57.8584 41.9705 56.8364 43.8664 56.8364C45.7623 56.8364 47.5278 57.8584 48.4739 59.5034C48.7546 59.9917 49.338 60.1945 49.861 59.9857C51.3068 59.4086 52.6621 58.6243 53.8891 57.6547C54.3301 57.3062 54.4458 56.7003 54.1642 56.2139C53.2143 54.5728 53.2127 52.5341 54.1599 50.8933C55.1063 49.2542 56.87 48.2367 58.7641 48.2367H58.7735C59.3361 48.2367 59.8024 47.8329 59.8826 47.2758C59.993 46.5112 60.0488 45.7288 60.0488 44.9504ZM50.7357 44.9504C50.7357 48.7382 47.6541 51.8197 43.8664 51.8197C40.0786 51.8197 36.9971 48.7382 36.9971 44.9504C36.9971 41.1626 40.0786 38.0811 43.8664 38.0811C47.6541 38.0811 50.7357 41.1626 50.7357 44.9504ZM48.7044 44.9504C48.7044 42.2827 46.534 40.1123 43.8664 40.1123C41.1987 40.1123 39.0283 42.2827 39.0283 44.9504C39.0283 47.6182 41.1987 49.7885 43.8664 49.7885C46.534 49.7885 48.7044 47.6181 48.7044 44.9504Z" fill="#5C30FD"/>
</svg>
